<?xml version="1.0" encoding="utf-8"?>
<!-- Generator: Adobe Illustrator 16.0.0, SVG Export Plug-In . SVG Version: 6.00 Build 0)  -->
<!DOCTYPE svg PUBLIC "-//W3C//DTD SVG 1.1//EN" "http://www.w3.org/Graphics/SVG/1.1/DTD/svg11.dtd">
<svg version="1.1" id="图层_1" xmlns="http://www.w3.org/2000/svg" xmlns:xlink="http://www.w3.org/1999/xlink" x="0px" y="0px"
	 width="41.24px" height="34.93px" viewBox="20.62 17.465 41.24 34.93" enable-background="new 20.62 17.465 41.24 34.93"
	 xml:space="preserve">
<polyline fill="#EBCAC0" points="61.128,45.814 49.728,51.808 44.196,47.269 37.946,42.853 32.946,37.822 35.862,35.972 
	40.767,37.822 37.779,29.853 33.862,21.52 36.529,19.186 41.239,27.186 43.862,25.627 46.112,26.52 48.862,25.02 51.862,27.936 
	54.862,26.436 59.529,35.349 "/>
<path fill="#313232" d="M47.721,32.786l-2.549-5.467c-0.295-0.631-1.049-0.904-1.677-0.61c-0.631,0.294-0.905,1.046-0.611,1.677
	l1.275,2.733l-1.813,0.846l-1.275-2.733c-0.76-1.631-0.052-3.576,1.58-4.335c1.629-0.762,3.574-0.052,4.334,1.578l2.549,5.467
	L47.721,32.786z"/>
<path fill="#313232" d="M47.721,32.786l-1.912-4.1c-0.76-1.631-0.052-3.576,1.578-4.335c1.629-0.762,3.575-0.053,4.335,1.577
	l2.23,4.783l-1.813,0.846l-2.23-4.783c-0.295-0.632-1.049-0.903-1.677-0.611c-0.631,0.294-0.905,1.047-0.611,1.677l1.912,4.099
	L47.721,32.786z"/>
<path fill="#313232" d="M48.547,52.394c-1.275-2.568-2.824-3.336-4.967-4.4c-1.764-0.875-3.958-1.963-6.469-4.344
	c-3.245-3.074-4.807-4.916-4.974-5.115l-0.492-0.588l0.44-0.627c0.08-0.115,2.01-2.82,5.011-2.026c0.985,0.26,1.76,0.76,2.406,1.27
	l-6.354-13.621c-0.76-1.631-0.052-3.575,1.579-4.335c1.629-0.759,3.573-0.052,4.334,1.577l6.054,12.984l-1.813,0.845l-6.054-12.984
	c-0.142-0.305-0.396-0.536-0.713-0.652c-0.316-0.114-0.657-0.1-0.964,0.042c-0.631,0.294-0.906,1.046-0.611,1.677l8.126,17.423
	l-1.074,0.35c-0.191,0.063-0.692,0.195-1.169,0.059c-0.729-0.208-1.314-0.715-1.936-1.252c-0.684-0.592-1.392-1.203-2.321-1.449
	c-1.011-0.266-1.839,0.236-2.342,0.678c0.825,0.912,2.267,2.422,4.241,4.293c2.294,2.174,4.253,3.146,5.983,4.004
	c2.304,1.143,4.293,2.131,5.868,5.303L48.547,52.394z"/>
<path fill="#313232" d="M60.047,46.318c-0.285-0.611-0.364-1.578-0.495-3.18c-0.29-3.546-0.774-9.481-4.144-14.58
	c-0.765-1.156-1.317-0.948-1.553-0.86c-0.794,0.298-1.163,1.098-1.168,1.106l-1.834-0.797c0.07-0.161,0.72-1.589,2.301-2.181
	c0.851-0.318,2.494-0.532,3.923,1.63c3.652,5.527,4.163,11.782,4.469,15.521c0.085,1.035,0.181,2.211,0.314,2.496L60.047,46.318z"/>
<path fill="#D25150" d="M27.485,39.965c-4.803-11.414-3.884-21.19-3.843-21.601l1.99,0.2c-0.01,0.096-0.899,9.704,3.696,20.625
	L27.485,39.965z"/>
<path fill="#D25150" d="M27.652,22.481c-0.256,0-0.512-0.098-0.707-0.293l-2.309-2.309l-2.31,2.309
	c-0.391,0.391-1.023,0.391-1.414,0c-0.39-0.391-0.39-1.024,0-1.414l3.017-3.016c0.188-0.188,0.441-0.293,0.707-0.293l0,0
	c0.266,0,0.52,0.105,0.707,0.293l3.016,3.016c0.39,0.391,0.39,1.024,0,1.414C28.164,22.383,27.908,22.481,27.652,22.481z"/>
<path fill="#D25150" d="M28.783,43.592c-1.591,0-2.885-1.293-2.885-2.885c0-1.59,1.294-2.885,2.885-2.885s2.885,1.295,2.885,2.885
	C31.668,42.299,30.374,43.592,28.783,43.592z M28.783,39.822c-0.488,0-0.885,0.397-0.885,0.885c0,0.488,0.396,0.885,0.885,0.885
	c0.489,0,0.885-0.396,0.885-0.885C29.668,40.219,29.272,39.822,28.783,39.822z"/>
</svg>
