<?xml version="1.0" encoding="utf-8"?>
<!-- Generator: Adobe Illustrator 16.0.0, SVG Export Plug-In . SVG Version: 6.00 Build 0)  -->
<!DOCTYPE svg PUBLIC "-//W3C//DTD SVG 1.1//EN" "http://www.w3.org/Graphics/SVG/1.1/DTD/svg11.dtd">
<svg version="1.1" id="图层_1" xmlns="http://www.w3.org/2000/svg" xmlns:xlink="http://www.w3.org/1999/xlink" x="0px" y="0px"
	 width="40.4px" height="37.922px" viewBox="20.2 18.962 40.4 37.922" enable-background="new 20.2 18.962 40.4 37.922"
	 xml:space="preserve">
<polyline fill="#EBCAC0" points="46.516,56.552 59.729,50.392 57.106,39.849 52.106,31.151 48.94,32.39 46.516,31.151 43.48,32.531 
	41.356,32.14 39.523,33.612 34.523,23.89 32.023,24.731 31.273,26.89 38.99,44.306 35.44,43.167 31.273,43.64 31.273,45.029 
	38.753,51.556 "/>
<path fill="#313232" d="M41.207,39.894l-1.912-4.1c-0.76-1.631-0.052-3.575,1.578-4.335c0.79-0.369,1.676-0.407,2.494-0.109
	c0.819,0.298,1.472,0.897,1.841,1.687l1.912,4.1l-1.813,0.846l-1.912-4.1c-0.143-0.306-0.396-0.538-0.712-0.653
	c-0.318-0.115-0.659-0.101-0.965,0.042c-0.632,0.294-0.905,1.047-0.612,1.677l1.912,4.1L41.207,39.894z"/>
<path fill="#313232" d="M44.988,37.299l-1.273-2.733c-0.761-1.63-0.053-3.575,1.576-4.335c1.63-0.759,3.574-0.053,4.336,1.577
	l1.912,4.101l-1.813,0.845l-1.912-4.1c-0.295-0.631-1.048-0.905-1.678-0.61c-0.631,0.294-0.904,1.047-0.609,1.677l1.273,2.733
	L44.988,37.299z"/>
<path fill="#313232" d="M45.803,56.884c-0.536-1.15-1.399-1.523-3.145-2.193c-1.847-0.711-4.375-1.682-7.325-4.477
	c-3.247-3.078-4.806-4.918-4.973-5.117l-0.469-0.559l0.391-0.617c0.079-0.124,1.953-3.025,4.993-2.447
	c0.862,0.164,1.619,0.725,2.302,1.342l-7.161-15.36c-0.368-0.79-0.407-1.676-0.109-2.494c0.298-0.819,0.897-1.472,1.687-1.841
	c0.789-0.368,1.676-0.407,2.494-0.109s1.472,0.896,1.84,1.686l6.692,14.351l-1.813,0.846l-6.692-14.35
	c-0.142-0.306-0.396-0.537-0.712-0.653c-0.318-0.114-0.661-0.1-0.965,0.042c-0.306,0.143-0.538,0.396-0.653,0.712
	s-0.101,0.659,0.042,0.965l9.081,19.473l-1.073,0.35c-0.193,0.063-0.692,0.195-1.169,0.059c-0.781-0.223-1.465-0.885-2.19-1.588
	c-0.657-0.635-1.401-1.355-1.977-1.466c-1.074-0.208-1.959,0.468-2.466,0.993c0.818,0.906,2.271,2.432,4.276,4.33
	c2.662,2.523,4.883,3.377,6.667,4.063c1.792,0.688,3.339,1.283,4.24,3.217L45.803,56.884z"/>
<path fill="#313232" d="M58.787,50.831c-0.25-0.537-0.436-1.463-0.715-2.864c-0.722-3.608-1.928-9.646-5.399-14.896
	c-0.761-1.155-1.317-0.948-1.552-0.86c-0.793,0.297-1.163,1.097-1.167,1.106l-1.834-0.798c0.069-0.161,0.719-1.589,2.3-2.181
	c0.852-0.319,2.494-0.533,3.924,1.63c3.686,5.577,4.988,12.102,5.689,15.607c0.215,1.076,0.418,2.092,0.566,2.41L58.787,50.831z"/>
<path fill="#D25150" d="M23.535,45.029c-0.084-0.404-2.018-10.032,1.57-21.883l1.914,0.579c-3.432,11.34-1.545,20.802-1.526,20.897
	L23.535,45.029z"/>
<path fill="#D25150" d="M24.514,45.825c-0.228,0-0.45-0.078-0.629-0.224l-3.314-2.685c-0.429-0.348-0.495-0.979-0.147-1.407
	c0.347-0.43,0.977-0.495,1.406-0.147l2.537,2.055l2.056-2.537c0.348-0.43,0.978-0.496,1.406-0.146
	c0.429,0.348,0.495,0.977,0.147,1.406l-2.685,3.314c-0.167,0.205-0.409,0.338-0.673,0.365
	C24.583,45.823,24.548,45.825,24.514,45.825z"/>
<path fill="#D25150" d="M26.804,24.731c-1.591,0-2.885-1.294-2.885-2.885c0-1.591,1.294-2.884,2.885-2.884
	c1.591,0,2.885,1.294,2.885,2.885C29.689,23.438,28.395,24.731,26.804,24.731z M26.804,20.962c-0.488,0-0.885,0.397-0.885,0.885
	c0,0.488,0.397,0.885,0.885,0.885s0.885-0.397,0.885-0.885C27.689,21.359,27.292,20.962,26.804,20.962z"/>
</svg>
